<?xml version="1.0" standalone="no"?>
<!DOCTYPE svg PUBLIC "-//W3C//DTD SVG 20010904//EN"
 "http://www.w3.org/TR/2001/REC-SVG-20010904/DTD/svg10.dtd">
<svg version="1.0" xmlns="http://www.w3.org/2000/svg"
 width="713.000000pt" height="150.000000pt" viewBox="0 0 713.000000 150.000000"
 preserveAspectRatio="xMidYMid meet">

<g transform="translate(0.000000,150.000000) scale(0.100000,-0.100000)"
fill="#662D91" stroke="none">
<path d="M5140 1174 l0 -176 -37 32 c-64 56 -117 75 -213 75 -73 0 -93 -4
-141 -28 -69 -33 -132 -99 -167 -175 -25 -52 -27 -68 -27 -182 0 -121 1 -127
32 -191 37 -75 101 -140 171 -172 37 -17 66 -22 137 -22 78 0 97 4 141 27 28
15 63 41 78 58 l26 32 0 -56 0 -56 95 0 95 0 0 505 0 505 -95 0 -95 0 0 -176z
m-112 -253 c77 -39 112 -104 112 -203 -1 -98 -49 -179 -123 -207 -49 -19 -128
-13 -172 12 -90 51 -130 189 -85 294 35 83 92 122 178 123 33 0 67 -7 90 -19z"/>
<path d="M5460 845 l0 -505 95 0 94 0 3 157 3 158 125 -158 124 -157 124 0
124 0 -69 78 c-199 221 -263 296 -261 303 2 4 74 89 161 188 86 99 157 182
157 185 0 3 -53 6 -119 6 l-118 0 -124 -157 -124 -157 -3 282 -2 282 -95 0
-95 0 0 -505z"/>
<path d="M442 1089 c-200 -63 -230 -302 -49 -387 23 -11 80 -30 127 -42 125
-34 168 -55 176 -84 14 -59 -30 -96 -113 -96 -59 0 -111 29 -126 70 l-11 30
-93 0 c-93 0 -93 0 -93 -25 0 -41 35 -99 86 -144 116 -101 337 -108 460 -14
70 53 94 165 54 249 -33 67 -88 98 -258 144 -110 30 -142 51 -142 93 0 52 29
72 105 72 57 0 67 -3 94 -29 17 -17 31 -38 31 -48 0 -16 10 -18 90 -18 l90 0
0 28 c0 28 -29 95 -52 122 -76 90 -236 123 -376 79z"/>
<path d="M1217 1100 c-49 -13 -126 -52 -165 -84 -119 -101 -159 -327 -83 -480
61 -123 171 -194 315 -203 217 -14 383 114 416 321 13 79 0 175 -32 244 -34
72 -122 154 -193 181 -67 26 -197 36 -258 21z m182 -174 c126 -65 151 -268 47
-372 -69 -69 -158 -80 -238 -28 -48 31 -79 93 -85 169 -9 103 26 180 102 226
37 23 133 25 174 5z"/>
<path d="M1922 1089 c-200 -63 -230 -302 -49 -387 23 -11 80 -30 127 -42 125
-34 168 -55 176 -84 14 -59 -30 -96 -113 -96 -59 0 -111 29 -126 70 l-11 30
-93 0 c-93 0 -93 0 -93 -25 0 -41 35 -99 86 -144 116 -101 337 -108 460 -14
70 53 94 165 54 249 -33 67 -88 98 -258 144 -110 30 -142 51 -142 93 0 52 29
72 105 72 57 0 67 -3 94 -29 17 -17 31 -38 31 -48 0 -16 10 -18 90 -18 l90 0
0 28 c0 28 -29 95 -52 122 -76 90 -236 123 -376 79z"/>
<path d="M2787 1096 c-27 -7 -68 -27 -92 -44 l-44 -31 -3 37 -3 37 -92 3 -93
3 0 -381 0 -380 95 0 95 0 0 243 c0 217 2 246 19 277 29 55 63 74 139 78 57 3
72 0 101 -20 72 -48 76 -64 79 -336 l3 -242 95 0 94 0 0 243 c0 232 1 244 23
281 29 52 77 76 148 76 66 0 111 -25 143 -80 19 -32 21 -54 24 -278 l3 -242
96 0 95 0 -4 268 c-5 298 -10 326 -74 400 -19 23 -60 53 -90 68 -47 23 -70 28
-138 28 -98 1 -169 -27 -230 -92 l-40 -41 -33 39 c-68 79 -207 117 -316 86z"/>
<path d="M4040 1095 c-163 -46 -260 -186 -260 -374 0 -246 164 -404 405 -389
149 10 265 91 315 223 l10 25 -103 0 c-103 0 -103 0 -120 -29 -57 -97 -244
-76 -296 32 -40 82 -56 77 254 77 l275 0 6 26 c14 55 -5 157 -44 234 -41 83
-101 137 -182 166 -66 23 -193 27 -260 9z m217 -171 c38 -28 73 -82 73 -110
l0 -24 -180 0 c-132 0 -180 3 -180 12 0 33 45 100 83 123 36 22 51 25 109 23
49 -3 75 -9 95 -24z"/>
<path d="M6182 827 l3 -273 33 -66 c47 -97 115 -142 230 -154 75 -8 155 15
216 61 l46 35 0 -45 0 -45 95 0 95 0 0 380 0 380 -94 0 -95 0 -3 -247 c-3
-235 -4 -250 -25 -283 -67 -108 -234 -102 -290 10 -22 42 -23 55 -23 282 l0
238 -96 0 -95 0 3 -273z"/>
</g>
</svg>
